<mxfile host="app.diagrams.net" modified="2024-04-18T13:52:35.177Z" agent="Mozilla/5.0 (Windows NT 10.0; Win64; x64) AppleWebKit/537.36 (KHTML, like Gecko) Chrome/124.0.0.0 Safari/537.36" version="24.2.5" etag="STCM_a_Q1eDao5hP0RCp" type="github">
  <diagram name="Page-1" id="9FohH9dn8nELttwxLQUG">
    <mxGraphModel>
      <root>
        <mxCell id="0" />
        <mxCell id="1" parent="0" />
      </root>
    </mxGraphModel>
  </diagram>
</mxfile>
